World.Trade.Centre.2006.BRrip.720p.Dual.Audio.Eng-Hindi~MSBHATTI [First On Net]

IMDB:- http://www.imdb.com/title/tt0469641/

PLOT:- Two Port Authority police officers become trapped under the rubble of the World Trade Center.

Director: Oliver Stone
Writers: Andrea Berloff, John McLoughlin (true story), and 3 more credits »
Stars: Nicolas Cage, Michael Peña and Maria Bello

INFO:-

General
Complete name                    : World.Trade.Centre.2006.BRrip.720p.Dual.Audio.Eng-Hindi~MSBHATTI [First On Net]
Format                           : Matroska
File size                        : 3.24 GiB
Duration                         : 2h 3mn
Overall bit rate                 : 3 748 Kbps
Movie name                       : World.Trade.Center.2006.720p.BDRip.AC3.x264-AdiT
Encoded date                     : UTC 2011-07-01 19:18:19
Writing application              : mkvmerge v3.3.0 ('Language') built on Mar 24 2010 14:59:24
Writing library                  : libebml v0.8.0 + libmatroska v0.9.0

Video
ID                               : 1
Format                           : AVC
Format/Info                      : Advanced Video Codec
Format profile                   : High@L4.1
Format settings, CABAC           : Yes
Format settings, ReFrames        : 5 frames
Codec ID                         : V_MPEG4/ISO/AVC
Duration                         : 2h 3mn
Bit rate                         : 2 969 Kbps
Width                            : 1 280 pixels
Height                           : 720 pixels
Display aspect ratio             : 16:9
Frame rate                       : 25.000 fps
Original frame rate              : 23.976 fps
Color space                      : YUV
Chroma subsampling               : 4:2:0
Bit depth                        : 8 bits
Scan type                        : Progressive
Bits/(Pixel*Frame)               : 0.129
Stream size                      : 2.57 GiB (79%)
Writing library                  : x264 core 80 r1376M 3feaec2
Encoding settings                : cabac=1 / ref=5 / deblock=1:-3:-3 / analyse=0x3:0x133 / me=umh / subme=8 / psy=1 / psy_rd=1.0:0.0 / mixed_ref=1 / me_range=24 / chroma_me=1 / trellis=2 / 8x8dct=1 / cqm=2 / deadzone=21,11 / fast_pskip=0 / chroma_qp_offset=-2 / threads=6 / sliced_threads=0 / nr=0 / decimate=1 / mbaff=0 / constrained_intra=0 / bframes=3 / b_pyramid=0 / b_adapt=1 / b_bias=0 / direct=1 / wpredb=1 / wpredp=2 / keyint=250 / keyint_min=25 / scenecut=40 / rc_lookahead=40 / rc=crf / mbtree=1 / crf=21.5 / qcomp=0.60 / qpmin=10 / qpmax=51 / qpstep=4 / ip_ratio=1.40 / aq=1:1.00

Audio #1
ID                               : 2
Format                           : AC-3
Format/Info                      : Audio Coding 3
Mode extension                   : CM (complete main)
Codec ID                         : A_AC3
Duration                         : 2h 3mn
Bit rate mode                    : Constant
Bit rate                         : 448 Kbps
Channel(s)                       : 6 channels
Channel positions                : Front: L C R, Side: L R, LFE
Sampling rate                    : 48.0 KHz
Bit depth                        : 16 bits
Compression mode                 : Lossy
Stream size                      : 397 MiB (12%)
Title                            : MSBHATTI
Language                         : English

Audio #2
ID                               : 4
Format                           : MPEG Audio
Format version                   : Version 1
Format profile                   : Layer 3
Codec ID                         : A_MPEG/L3
Codec ID/Hint                    : MP3
Duration                         : 2h 3mn
Bit rate mode                    : Constant
Bit rate                         : 256 Kbps
Channel(s)                       : 2 channels
Sampling rate                    : 48.0 KHz
Compression mode                 : Lossy
Stream size                      : 227 MiB (7%)
Title                            : MSBHATTI
Language                         : Hindi

Text
ID                               : 3
Format                           : UTF-8
Codec ID                         : S_TEXT/UTF8
Codec ID/Info                    : UTF-8 Plain Text
Title                            : MSBHATTI
Language                         : English

SCREENSHOTS:-
 
http://i1215.photobucket.com/albums/cc517/msbhatti/WorldTradeCentre2006BRrip720pDualAudioEng-HindiMSBHATTIFirstOnNetmkv_snapshot_000443_20110702_224500.jpg 
http://i1215.photobucket.com/albums/cc517/msbhatti/WorldTradeCentre2006BRrip720pDualAudioEng-HindiMSBHATTIFirstOnNetmkv_snapshot_000944_20110702_224617.jpg 
http://i1215.photobucket.com/albums/cc517/msbhatti/WorldTradeCentre2006BRrip720pDualAudioEng-HindiMSBHATTIFirstOnNetmkv_snapshot_002101_20110702_224654.jpg 
http://i1215.photobucket.com/albums/cc517/msbhatti/WorldTradeCentre2006BRrip720pDualAudioEng-HindiMSBHATTIFirstOnNetmkv_snapshot_002237_20110702_224733.jpg 
http://i1215.photobucket.com/albums/cc517/msbhatti/WorldTradeCentre2006BRrip720pDualAudioEng-HindiMSBHATTIFirstOnNetmkv_snapshot_010138_20110702_224905.jpg 
http://i1215.photobucket.com/albums/cc517/msbhatti/WorldTradeCentre2006BRrip720pDualAudioEng-HindiMSBHATTIFirstOnNetmkv_snapshot_010254_20110702_224928.jpg

IF U LIKE MY WORK SO COMMENT PLZ

AND PLZZZZZZZZZZZ SEED AS MUCH AS U CAN PLZZZZZZZZZZ

REGARDS

MSBHATTI